<mxfile host="app.diagrams.net" modified="2023-10-02T09:04:26.510Z" agent="Mozilla/5.0 (X11; Linux x86_64; rv:109.0) Gecko/20100101 Firefox/117.0" version="21.2.9" etag="KUzydd8YhH50MCtJoLUe" type="github">
  <diagram name="Page-1" id="frlsa_pneO61_Gw_KAdB">
    <mxGraphModel>
      <root>
        <mxCell id="0" />
        <mxCell id="1" parent="0" />
      </root>
    </mxGraphModel>
  </diagram>
</mxfile>
